<?xml version="1.0"?>
<svg xmlns="http://www.w3.org/2000/svg" height="512px" viewBox="-13 0 408 408.00022" width="512px"><path d="m341.203125 1.199219-300.203125-1.199219h-.199219c-10.855469 0-21.261719 4.324219-28.921875 12.019531-7.65625 7.695313-11.9296872 18.125-11.878906 28.980469v277.601562c-.121094 14.597657 7.488281 28.175782 20 35.699219v28.300781c0 14.097657 11.902344 25.398438 26 25.398438h33.5c6.753906.027344 13.242188-2.636719 18.027344-7.402344s7.476562-11.242187 7.472656-17.996094v-22.601562h172v22.601562c.03125 14.050782 11.449219 25.421876 25.5 25.398438h33.5c14.101562 0 26-11.300781 26-25.398438v-28.300781c12.515625-7.523437 20.121094-21.101562 20-35.699219v-276.402343c.03125-22.578125-18.222656-40.917969-40.796875-41zm-321.203125 189.699219v-119.296876l161 .699219v119.300781zm181-118.5 161 .703124v119.296876l-161-.699219zm-175-46.296876c3.875-3.941406 9.179688-6.140624 14.703125-6.101562h.097656l300.300781 1.199219c11.5625.042969 20.914063 9.4375 20.898438 21v10.800781l-342-1.398438v-10.601562c-.097656-5.574219 2.070312-10.949219 6-14.898438zm59 356.5c0 1.449219-.582031 2.835938-1.617188 3.851563-1.03125 1.015625-2.433593 1.574219-3.882812 1.546875h-33.5c-3.097656 0-6-2.300781-6-5.398438v-22.902343c1 0 .601562.300781.800781.300781h44.199219zm257 0c0 3.097657-2.898438 5.398438-6 5.398438h-33.5c-1.453125.042969-2.863281-.507812-3.898438-1.527344-1.039062-1.019531-1.617187-2.417968-1.601562-3.871094v-22.601562h44.203125c.097656 0-.203125-.300781.796875-.300781zm-.796875-42.601562h-300.402344c-11.597656 0-20.800781-9.800781-20.800781-21.398438v-107.703124l168.5.703124c.847656.246094 1.722656.378907 2.601562.398438.777344.003906 1.550782-.09375 2.300782-.300781l168.597656.699219v106.203124c0 11.597657-9.097656 21.398438-20.796875 21.398438zm0 0" fill="#FFFFFF"/><path d="m349 261c-.015625-5.515625-4.480469-9.984375-10-10h-54c-5.515625.015625-9.984375 4.484375-10 10v37c.015625 5.515625 4.484375 9.984375 10 10h54c5.519531-.015625 9.984375-4.484375 10-10zm-20 27h-34v-17h34zm0 0" fill="#FFFFFF"/><path d="m107 261c-.015625-5.515625-4.480469-9.984375-10-10h-54c-5.515625.015625-9.984375 4.484375-10 10v37c.015625 5.515625 4.484375 9.984375 10 10h54c5.519531-.015625 9.984375-4.484375 10-10zm-20 27h-34v-17h34zm0 0" fill="#FFFFFF"/><path d="m242 290h-102c-5.519531 0-10 4.476562-10 10s4.480469 10 10 10h102c5.523438 0 10-4.476562 10-10s-4.476562-10-10-10zm0 0" fill="#FFFFFF"/><path d="m242 254h-102c-5.519531 0-10 4.476562-10 10s4.480469 10 10 10h102c5.523438 0 10-4.476562 10-10s-4.476562-10-10-10zm0 0" fill="#FFFFFF"/></svg>
