<svg height="499pt" viewBox="0 -92 499 499" width="499pt" xmlns="http://www.w3.org/2000/svg"><path d="m449.859375 127.539062-28.78125-5.296874v-62.242188c-.035156-33.121094-26.875-59.9609375-60-60h-311.078125c-27.601562.03125-49.96875 22.398438-50 50v185.699219c.0195312 16.5625 13.4375 29.980469 30 30h10.46875c3.175781 28.109375 26.953125 49.351562 55.242188 49.351562 28.289062 0 52.066406-21.242187 55.242187-49.351562h197.191406c3.175781 28.113281 26.953125 49.355469 55.242188 49.355469 28.289062 0 52.070312-21.242188 55.242187-49.355469h10.371094c16.5625-.019531 29.980469-13.4375 30-30v-49.148438c.003906-28.949219-20.667969-53.773437-49.140625-59.011719zm-141.191406-9.199218v-47.902344h92.410156v47.90625zm-110 0v-47.902344h90v47.90625zm90 20v107.359375h-90v-107.355469zm-110-20h-93.726563c-5.519531-.003906-9.992187-4.476563-10-10v-27.902344c.007813-5.523438 4.480469-9.996094 10-10h93.726563v47.90625zm-82.957031 176.710937c-19.664063 0-35.601563-15.9375-35.601563-35.597656 0-19.664063 15.9375-35.601563 35.601563-35.601563 19.660156 0 35.597656 15.9375 35.597656 35.601563-.023438 19.652344-15.945313 35.574219-35.597656 35.597656zm0-91.199219c-25.402344.035157-47.5625 17.25-53.878907 41.851563h-11.832031c-5.519531-.003906-9.992188-4.476563-10-10v-185.699219c.019531-16.558594 13.4375-29.980468 30-30h311.078125c18.398437.027344 34.417969 12.578125 38.835937 30.4375h-314.972656c-16.558594.019532-29.980468 13.441406-30 30v27.910156c.019532 16.558594 13.441406 29.980469 30 30h93.726563v107.347657h-29.078125c-6.316406-24.601563-28.476563-41.816407-53.878906-41.851563zm307.679687 91.199219c-19.664063 0-35.601563-15.9375-35.601563-35.597656 0-19.664063 15.9375-35.601563 35.601563-35.601563 19.660156 0 35.597656 15.9375 35.597656 35.601563-.023437 19.648437-15.949219 35.574219-35.597656 35.597656zm75.609375-59.351562c-.007812 5.523437-4.480469 9.996093-10 10h-11.730469c-6.289062-24.621094-28.46875-41.851563-53.878906-41.851563-25.414063 0-47.59375 17.230469-53.878906 41.851563h-40.84375v-107.355469h100.5625c2.433593 1.800781 5.25 3.019531 8.230469 3.570312l28.777343 5.300782c18.980469 3.492187 32.761719 20.039062 32.761719 39.335937zm0 0"/></svg>